<?xml version="1.0" encoding="UTF-8"?>
<svg version="1.1" xmlns="http://www.w3.org/2000/svg" width="150" height="150">
<path d="M0 0 C3.3816831 1.92937475 6.36801642 4.15014563 9.37890625 6.59765625 C10.61022002 7.58130158 11.84201547 8.56434418 13.07421875 9.546875 C13.72680664 10.06942871 14.37939453 10.59198242 15.05175781 11.13037109 C18.76261294 14.08666823 22.50890057 16.99732992 26.25390625 19.91015625 C26.95676758 20.45905518 27.65962891 21.0079541 28.38378906 21.57348633 C29.08600586 22.12029053 29.78822266 22.66709473 30.51171875 23.23046875 C31.22730957 23.82214844 31.94290039 24.41382812 32.68017578 25.0234375 C35.13890259 26.92396903 35.13890259 26.92396903 38.32373047 28.171875 C42.21278671 30.15288636 45.09137273 31.89611834 47.12890625 35.78515625 C49.07042436 44.79127266 48.35574717 54.29749666 48.06671143 63.46185303 C47.92170864 68.24863587 47.83564465 73.03605785 47.790802 77.82476807 C47.7615089 80.36844865 47.70054725 82.91200659 47.60446167 85.45404053 C47.27245571 91.34559686 47.27245571 91.34559686 49.4385376 96.58508301 C51.23178961 98.08676664 51.23178961 98.08676664 54.12890625 99.78515625 C55.89673504 103.76277104 56.22343788 106.09980196 55.62890625 110.41015625 C53.75837337 114.61885523 52.02272116 116.33349501 48.12890625 118.78515625 C44.1350793 120.0740008 40.9079744 120.03985161 36.87890625 118.72265625 C33.65783431 116.45326466 32.02780813 114.21778657 30.12890625 110.78515625 C30.12890625 110.12515625 30.12890625 109.46515625 30.12890625 108.78515625 C28.54823112 108.79847992 28.54823112 108.79847992 26.93562317 108.81207275 C17.00384361 108.8931658 7.07213124 108.95312514 -2.85990429 108.99240494 C-7.96606941 109.01327804 -13.07196723 109.04159081 -18.17797852 109.08691406 C-23.10575805 109.13038142 -28.0332805 109.15429544 -32.96123695 109.16466522 C-34.84112915 109.17205498 -36.7210073 109.18648548 -38.60079002 109.20807648 C-41.23441323 109.23712245 -43.86697476 109.24111178 -46.50073242 109.23925781 C-47.27756882 109.25363892 -48.05440521 109.26802002 -48.8547821 109.28283691 C-52.57747967 109.25448834 -54.66888284 108.91515634 -57.83174133 106.8817749 C-61.15609139 103.46407511 -61.03771259 101.23431959 -61.17504883 96.55053711 C-61.2137056 95.23834702 -61.25236237 93.92615692 -61.29219055 92.57420349 C-61.41824832 87.34337889 -61.50813836 82.11196198 -61.5749712 76.88005733 C-61.62629853 72.91153487 -61.70059483 68.94650538 -61.83129883 64.97973633 C-61.95735876 61.13854607 -62.02340766 57.30050042 -62.04855919 53.45736885 C-62.06809209 51.99905195 -62.10833854 50.54084888 -62.17041969 49.08372307 C-62.63249797 37.7042951 -62.63249797 37.7042951 -58.24908447 32.92834473 C-55.31325862 30.56280496 -52.13122228 28.67411422 -48.87109375 26.78515625 C-47.60340051 25.84580116 -46.35159391 24.88394942 -45.12890625 23.88671875 C-43.50700971 22.60457111 -41.88500075 21.32256399 -40.26147461 20.04248047 C-37.83892099 18.13228226 -35.41909838 16.21864178 -32.99951172 14.3046875 C-31.14521232 12.8385644 -29.28942493 11.37433961 -27.43359375 9.91015625 C-26.60142334 9.25007568 -26.60142334 9.25007568 -25.75244141 8.57666016 C-9.68416779 -4.09765467 -9.68416779 -4.09765467 0 0 Z " fill="#699B88" transform="translate(82.87109375,23.21484375)"/>
<path d="M0 0 C3.38165026 1.92935601 6.36816287 4.14998745 9.37890625 6.59765625 C10.60755602 7.58007389 11.83675082 8.56181015 13.06640625 9.54296875 C14.04480469 10.32655762 14.04480469 10.32655762 15.04296875 11.12597656 C18.02069871 13.49449866 21.02723292 15.82514056 24.03466797 18.15576172 C26.34282195 19.94468922 28.64642985 21.73933019 30.94921875 23.53515625 C33.45397711 25.48744423 35.96690757 27.42714745 38.49609375 29.34765625 C39.40617187 30.04890625 40.31625 30.75015625 41.25390625 31.47265625 C42.01960938 32.05402344 42.7853125 32.63539062 43.57421875 33.234375 C44.34378906 34.00201172 44.34378906 34.00201172 45.12890625 34.78515625 C45.12890625 35.77515625 45.12890625 36.76515625 45.12890625 37.78515625 C43.16013992 39.48145938 41.24217463 40.98051743 39.12890625 42.47265625 C38.5565625 42.88837891 37.98421875 43.30410156 37.39453125 43.73242188 C35.97894093 44.75872486 34.55470994 45.77309024 33.12890625 46.78515625 C32.86078125 46.18703125 32.59265625 45.58890625 32.31640625 44.97265625 C31.04925463 42.63842958 30.25340829 41.38029259 28.12890625 39.78515625 C25.01192021 39.33384934 25.01192021 39.33384934 21.39428711 39.4128418 C20.71431168 39.40919113 20.03433624 39.40554047 19.33375549 39.40177917 C17.08683272 39.39367497 14.84063135 39.4072805 12.59375 39.421875 C11.03341167 39.42239357 9.47307267 39.421876 7.91273499 39.42036438 C4.64346559 39.42045409 1.37444284 39.43088258 -1.89477539 39.44897461 C-6.0905112 39.47168068 -10.28588715 39.47220246 -14.48166752 39.46545696 C-17.70294915 39.46211993 -20.92414834 39.46874171 -24.14541435 39.4785862 C-25.69281012 39.48244167 -27.24021506 39.48358498 -28.78761482 39.48200035 C-30.94721162 39.48163056 -33.10634221 39.49422435 -35.26586914 39.51049805 C-36.49592178 39.51510544 -37.72597443 39.51971283 -38.99330139 39.52445984 C-42.000036 39.48714634 -42.000036 39.48714634 -43.87109375 41.78515625 C-44.51877168 44.35576936 -44.51877168 44.35576936 -44.87109375 46.78515625 C-48.39347422 45.22148268 -51.14233369 43.09019736 -54.12109375 40.66015625 C-55.013125 39.93570313 -55.90515625 39.21125 -56.82421875 38.46484375 C-57.4996875 37.91054688 -58.17515625 37.35625 -58.87109375 36.78515625 C-57.33090517 32.73299343 -54.80594534 30.95159947 -51.37109375 28.41015625 C-50.19464225 27.52954053 -49.01890157 26.64797468 -47.84375 25.765625 C-47.20711426 25.29044434 -46.57047852 24.81526367 -45.91455078 24.32568359 C-42.17502181 21.50651659 -38.49755121 18.60745591 -34.80859375 15.72265625 C-29.53425405 11.61681299 -24.25823757 7.51316552 -18.93359375 3.47265625 C-18.01707031 2.77527344 -17.10054687 2.07789063 -16.15625 1.359375 C-11.15336588 -2.08705628 -5.478394 -2.31806875 0 0 Z " fill="#699B88" transform="translate(82.87109375,23.21484375)"/>
<path d="M0 0 C1.01755371 -0.00788544 1.01755371 -0.00788544 2.05566406 -0.01593018 C4.29776035 -0.02913276 6.53914651 -0.02039179 8.78125 -0.01025391 C10.3391941 -0.01227458 11.89713727 -0.01518597 13.45507812 -0.01895142 C16.72014369 -0.0233751 19.98496305 -0.0169425 23.25 -0.00292969 C27.43676349 0.01416247 31.62295007 0.00432148 35.80969238 -0.01364708 C39.02673699 -0.02448387 42.24364465 -0.02103911 45.46069336 -0.0132637 C47.0044766 -0.01126139 48.54827225 -0.01372207 50.09204102 -0.02070236 C52.24919604 -0.02831541 54.40541478 -0.01671613 56.5625 0 C57.79033203 0.00238678 59.01816406 0.00477356 60.28320312 0.00723267 C63.28125 0.38818359 63.28125 0.38818359 65.15820312 1.74057007 C66.28125 3.38818359 66.28125 3.38818359 66.96875 6.13818359 C66.18667055 9.83528644 65.57244571 10.32666536 62.78125 12.67333984 C62.05574951 13.28419434 61.33024902 13.89504883 60.58276367 14.52441406 C56.97312604 17.44750451 53.30341668 20.28100173 49.59375 23.07568359 C48.13113334 24.18325874 46.66888427 25.29131949 45.20703125 26.39990234 C44.52721191 26.91343262 43.84739258 27.42696289 43.14697266 27.95605469 C41.55524419 29.17786563 39.99823139 30.44468306 38.44921875 31.72021484 C34.46266483 34.78734732 30.25591079 35.03576817 25.3671875 34.97802734 C19.83608795 33.92081718 16.10778834 30.36230333 11.91845703 26.77050781 C9.58226595 24.79801841 7.16386922 22.93766127 4.74731445 21.06518555 C2.4497402 19.28434461 0.16331494 17.4906709 -2.10668945 15.67480469 C-3.21188926 14.79272034 -4.32551708 13.92112303 -5.44604492 13.05859375 C-9.65602387 9.7366621 -9.65602387 9.7366621 -10.28125 6.26318359 C-9.07767626 0.11158445 -5.78063515 0.01123696 0 0 Z " fill="#E6EDEB" transform="translate(47.71875,61.61181640625)"/>
<path d="M0 0 C34.65 0 69.3 0 105 0 C101.55687411 3.44312589 99.11379744 5.79263746 95.1875 8.3125 C94.00220703 9.08013672 94.00220703 9.08013672 92.79296875 9.86328125 C92.20128906 10.23839844 91.60960938 10.61351563 91 11 C90.71125 10.21625 90.4225 9.4325 90.125 8.625 C89.15087746 5.90328368 89.15087746 5.90328368 87 4 C83.97772876 3.69203575 83.97772876 3.69203575 80.37890625 3.74121094 C79.69907684 3.7377063 79.01924744 3.73420166 78.31881714 3.73059082 C76.06660824 3.72177219 73.81471222 3.72762295 71.5625 3.734375 C70.00073181 3.73302838 68.43896402 3.73108788 66.87719727 3.72857666 C63.60201023 3.72562523 60.32693219 3.72992361 57.05175781 3.73925781 C52.84816309 3.75065243 48.64482375 3.74409305 44.4412384 3.73211288 C41.21567858 3.72489477 37.99017955 3.72718197 34.76461792 3.73236847 C33.21442637 3.7337051 31.66422935 3.73205676 30.11404419 3.72740936 C27.94957807 3.72234484 25.78552873 3.7300529 23.62109375 3.74121094 C22.3880249 3.74280212 21.15495605 3.74439331 19.88452148 3.74603271 C16.87167124 3.70008562 16.87167124 3.70008562 15 6 C14.35232207 8.57061311 14.35232207 8.57061311 14 11 C10.50004453 9.43810398 7.72827143 7.33666309 4.75 4.9375 C3.85796875 4.22464844 2.9659375 3.51179688 2.046875 2.77734375 C1.37140625 2.19082031 0.6959375 1.60429688 0 1 C0 0.67 0 0.34 0 0 Z " fill="#1E4843" transform="translate(24,59)"/>
<path d="M0 0 C2.69990662 1.79993774 4.5418865 3.083773 6 6 C6.5811138 13.08958838 6.5811138 13.08958838 4.125 16.9375 C1.39102013 19.5910687 0.52615669 19.95036258 -3.3125 20.3125 C-7.58777346 19.95018869 -9.04827827 19.03853708 -12 16 C-13.21260877 12.36217368 -13.39544552 9.82264001 -13 6 C-8.98136166 1.13533254 -6.3151598 -0.61913331 0 0 Z " fill="#1D4641" transform="translate(129,120)"/>
<path d="M0 0 C3.24306438 2.65341631 5.17089175 4.60176883 6.5625 8.5625 C6.82331198 12.30080511 6.17535835 14.77956227 4.75 18.25 C1.71777777 21.5710053 -0.84683843 23.45709351 -5.25 24.25 C-9.68011088 24.25 -11.64745485 23.78815681 -15.25 21.25 C-18.93386176 17.17836332 -19.95086257 13.78885196 -19.70703125 8.43359375 C-18.7780444 3.99510104 -15.97625786 1.51592243 -12.375 -1.125 C-7.67328643 -2.50785693 -4.31928681 -2.32576982 0 0 Z M-15.25 5.25 C-16.78214888 8.31429776 -16.47938548 10.8665642 -16.25 14.25 C-14.59860695 17.7886994 -13.53394771 19.06070153 -10.25 21.25 C-6.03821757 21.71797583 -3.96400886 21.71565795 -0.375 19.375 C2.53710658 16.46289342 2.71068305 15.6497223 3.125 11.4375 C3.10511166 7.79130475 2.81608692 7.32964321 0.3125 4.3125 C-0.533125 3.631875 -1.37875 2.95125 -2.25 2.25 C-2.58 1.92 -2.91 1.59 -3.25 1.25 C-8.51253509 0.63807731 -11.1459153 2.00490977 -15.25 5.25 Z " fill="#F2F5F5" transform="translate(132.25,118.75)"/>
<path d="M0 0 C21.12 0 42.24 0 64 0 C64 0.99 64 1.98 64 3 C42.88 3 21.76 3 0 3 C0 2.01 0 1.02 0 0 Z " fill="#DBE5EE" transform="translate(45,68)"/>
<path d="M0 0 C20.79 0 41.58 0 63 0 C60 3 60 3 57.39936829 3.36076355 C56.35790146 3.35410172 55.31643463 3.34743988 54.2434082 3.34057617 C53.06241043 3.34034958 51.88141266 3.34012299 50.66462708 3.33988953 C49.38955795 3.32440567 48.11448883 3.30892181 46.80078125 3.29296875 C45.49545944 3.28872391 44.19013763 3.28447906 42.84526062 3.28010559 C39.37794721 3.26866089 35.91101187 3.23919754 32.44384766 3.20599365 C28.90467442 3.17528433 25.36543999 3.16159845 21.82617188 3.14648438 C14.88395945 3.11432705 7.94199789 3.06313554 1 3 C0.67 2.01 0.34 1.02 0 0 Z " fill="#D8E3EE" transform="translate(45,75)"/>
<path d="M0 0 C16.17 0 32.34 0 49 0 C44.49885896 3.37585578 44.49885896 3.37585578 40.63037109 3.38818359 C39.77623627 3.39764008 38.92210144 3.40709656 38.04208374 3.4168396 C37.12843048 3.41076691 36.21477722 3.40469421 35.2734375 3.3984375 C34.32941071 3.40130768 33.38538391 3.40417786 32.41275024 3.40713501 C30.42066853 3.40917395 28.42856671 3.40365601 26.43652344 3.39111328 C23.37910553 3.37502161 20.32300245 3.3909862 17.265625 3.41015625 C15.33072624 3.40817449 13.3958283 3.40433221 11.4609375 3.3984375 C10.08438492 3.40754654 10.08438492 3.40754654 8.68002319 3.4168396 C7.40827744 3.40265488 7.40827744 3.40265488 6.11083984 3.38818359 C5.36345551 3.38579681 4.61607117 3.38341003 3.84603882 3.38095093 C2 3 2 3 0 0 Z " fill="#D9E3EE" transform="translate(52,81)"/>
<path d="M0 0 C11.22 0 22.44 0 34 0 C33.67 0.66 33.34 1.32 33 2 C31.83428467 2.029729 31.83428467 2.029729 30.64501953 2.06005859 C27.13799309 2.15507009 23.63158206 2.26484559 20.125 2.375 C18.29001953 2.42140625 18.29001953 2.42140625 16.41796875 2.46875 C15.25136719 2.50742188 14.08476563 2.54609375 12.8828125 2.5859375 C11.80402832 2.6173584 10.72524414 2.6487793 9.61376953 2.68115234 C6.84238346 2.74676322 6.84238346 2.74676322 5 5 C3.35 3.35 1.7 1.7 0 0 Z " fill="#D8E3EC" transform="translate(59,87)"/>
<path d="M0 0 C5.94 0 11.88 0 18 0 C17.67 0.66 17.34 1.32 17 2 C13.95059327 3.01646891 11.69630097 3.19844676 8.5 3.25 C7.5409375 3.27578125 6.581875 3.3015625 5.59375 3.328125 C3 3 3 3 0 0 Z " fill="#DAE5EA" transform="translate(67,93)"/>
<path d="M0 0 C2.64 0 5.28 0 8 0 C8 0.66 8 1.32 8 2 C5.6875 2.6875 5.6875 2.6875 3 3 C1.1875 1.5625 1.1875 1.5625 0 0 Z " fill="#D1DFE4" transform="translate(67,93)"/>
</svg>
